<?xml version="1.0" encoding="iso-8859-1"?>
<!-- Uploaded to: SVG Repo, www.svgrepo.com, Generator: SVG Repo Mixer Tools -->
<svg height="800px" width="800px" version="1.1" id="Layer_1" xmlns="http://www.w3.org/2000/svg" xmlns:xlink="http://www.w3.org/1999/xlink" 
	 viewBox="0 0 444.495 444.495" xml:space="preserve">
<path style="fill:#007EEF;" d="M427.032,175.978L230.849,3.426c-4.553-4.569-12.642-4.569-17.219,0l-71.585,62.976V32.272h2.615
	c4.356,0,7.877-3.521,7.877-7.877V12.579c0-4.356-3.521-7.877-7.877-7.877H58.014c-4.356,0-7.877,3.521-7.877,7.877v11.815
	c0,4.356,3.521,7.877,7.877,7.877h2.631v105.724l-43.181,37.983c-3.474,3.474-4.521,8.712-2.647,13.265
	c1.89,4.553,6.341,7.515,11.264,7.515h33.831v208.337c0,1.024,0.236,1.977,0.583,2.875H57.88c-4.474,0-8.105,3.631-8.105,8.113
	v20.283c0,4.49,3.631,8.121,8.105,8.121h328.72c4.49,0,8.121-3.631,8.121-8.121v-20.283c0-4.482-3.631-8.113-8.121-8.113H384
	c0.339-0.898,0.583-1.851,0.583-2.875V196.758h33.847c4.923,0,9.358-2.962,11.248-7.515
	C431.553,184.69,430.505,179.452,427.032,175.978z"/>
<path style="fill:#0E59A5;" d="M384.583,196.758h33.847c4.923,0,9.358-2.962,11.248-7.515c1.875-4.545,0.827-9.783-2.647-13.265
	L230.849,3.426c-4.553-4.569-12.642-4.569-17.219,0l-71.585,62.976V32.272h2.615c4.356,0,7.877-3.521,7.877-7.877V12.579
	c0-4.356-3.521-7.877-7.877-7.877H58.014c-4.356,0-7.877,3.521-7.877,7.877v11.815c0,4.356,3.521,7.877,7.877,7.877h2.631v91.152
	l321.079,321.071h4.876c4.49,0,8.121-3.631,8.121-8.121v-20.283c0-4.482-3.631-8.113-8.121-8.113H384
	c0.339-0.898,0.583-1.851,0.583-2.875L384.583,196.758L384.583,196.758z"/>
<path style="fill:#EBF0F2;" d="M322.591,212.842l-10.004-10.012l4.994-5.002c3.616-3.6,3.616-9.444,0-13.044
	c-3.592-3.6-9.444-3.6-13.036,0l-103.991,103.96l-5.648-5.648c-15.108-15.108-39.708-15.108-54.808,0l-9.578,9.57
	c-15.124,15.108-15.124,39.708,0,54.816l24.363,24.371c15.116,15.108,39.7,15.108,54.816,0l9.563-9.57
	c15.132-15.124,15.132-39.708,0-54.831l-5.648-5.648l67.001-67.001l10.004,10.004c3.616,3.615,9.444,3.615,13.06,0
	c3.6-3.6,3.6-9.444-0.008-13.044l-9.996-10.012l5.86-5.86l10.004,10.004c3.608,3.6,9.444,3.6,13.06,0
	C326.199,222.287,326.199,216.442,322.591,212.842z M206.226,349.223l-9.578,9.57c-7.916,7.924-20.787,7.924-28.711,0
	l-24.371-24.355c-7.908-7.924-7.908-20.803,0-28.719l9.578-9.57c7.916-7.908,20.803-7.908,28.719,0l24.363,24.371
	C214.134,328.42,214.134,341.315,206.226,349.223z"/>
<path style="fill:#BECED3;" d="M312.596,202.823l4.994-5.002c3.616-3.6,3.616-9.444,0-13.044c-3.592-3.6-9.444-3.6-13.036,0
	l-91.278,91.262l13.044,13.06l54.296-54.296l10.004,10.004c3.616,3.615,9.444,3.615,13.06,0c3.6-3.6,3.6-9.444-0.008-13.044
	l-9.996-10.012l5.86-5.86l10.004,10.004c3.608,3.6,9.444,3.6,13.06,0c3.6-3.6,3.6-9.444-0.008-13.044L312.596,202.823z"/>
</svg>