<!DOCTYPE svg PUBLIC "-//W3C//DTD SVG 1.1//EN" "http://www.w3.org/Graphics/SVG/1.1/DTD/svg11.dtd">
<!-- Uploaded to: SVG Repo, www.svgrepo.com, Transformed by: SVG Repo Mixer Tools -->
<svg height="800px" width="800px" version="1.1" id="Layer_1" xmlns="http://www.w3.org/2000/svg" xmlns:xlink="http://www.w3.org/1999/xlink" viewBox="0 0 512.00 512.00" xml:space="preserve" fill="#000000">
<g id="SVGRepo_bgCarrier" stroke-width="0"/>
<g id="SVGRepo_tracerCarrier" stroke-linecap="round" stroke-linejoin="round"/>
<g id="SVGRepo_iconCarrier"> <path style="fill:#00a88f;" d="M510.899,279.683C511.615,271.884,512,263.987,512,256C512,114.616,397.384,0,256,0S0,114.616,0,256 c0,95.359,52.144,178.531,129.468,222.583L510.899,279.683z"/> <path style="fill:#355f58;" d="M510.899,279.683l-71.61-71.61l-2.587,6.02l-69.398-69.398l-111.309-56.77L161.25,257.789 l95.996,95.996L129.468,478.582C166.791,499.844,209.973,512,256,512C389.398,512,498.946,409.963,510.899,279.683z"/> <path style="fill:#F97D85;" d="M439.289,208.073c-10.758-10.758-28.208-10.758-38.965,0L287.777,320.621l27.561,50.37 L439.29,247.039C450.048,236.281,450.047,218.831,439.289,208.073z"/> <path style="fill:#FB9DA4;" d="M470.772,239.556c-10.758-10.758-28.207-10.758-38.964,0L328.566,342.797l-134.693-13.842 L63.799,367.954l-24.451,24.451c22.466,35.607,53.458,65.29,90.121,86.176l21.84-21.84L334.1,409.742 c4.661-1.205,9.072-3.623,12.72-7.271l123.952-123.952C481.529,267.763,481.529,250.313,470.772,239.556z"/> <path style="fill:#FCBEC2;" d="M336.273,323.378c0-15.364-12.462-27.826-27.826-27.826l-139.13,0.113l0.075,0.252 c-18.918-1.594-38.386,4.833-52.862,19.309L63.8,367.955c31.297,31.297,82.038,31.297,113.333,0l16.739-16.739 c51.968-0.004,114.574-0.012,114.574-0.012C323.811,351.204,336.273,338.743,336.273,323.378z"/> <path style="fill:#F97D85;" d="M308.447,306.682h-22.261l5.565,16.696l-5.565,16.696h22.271c9.197,0,16.686-7.49,16.686-16.696 C325.142,314.172,317.653,306.682,308.447,306.682z"/> <path style="fill:#FFFFFF;" d="M286.186,306.682l0.01,33.391c9.197,0,16.686-7.49,16.686-16.696 C302.881,314.172,295.392,306.682,286.186,306.682z"/> <polygon style="fill:#FEF2CC;" points="367.304,144.696 256,33.391 217.039,165.839 294.812,257.79 350.468,257.79 350.609,144.696 "/> <polygon style="fill:#FFFFFF;" points="144.696,144.696 161.391,144.696 161.251,257.79 216.899,257.79 256,188.102 256,33.391 "/> <polygon style="fill:#8C2416;" points="255.996,165.839 233.737,215.926 255.855,257.79 294.812,257.79 294.952,165.839 "/> <polygon style="fill:#A72B1A;" points="255.996,165.839 217.039,165.839 216.899,257.79 255.855,257.79 "/> </g>
</svg>